<svg width="185" height="172" viewBox="0 0 185 172" fill="none" xmlns="http://www.w3.org/2000/svg">
<path d="M0 6.66C0 5.02627 0.647038 3.45945 1.79877 2.30422C2.95051 1.149 4.51259 0.5 6.14139 0.5H24.5656C25.9355 0.50038 27.2659 0.96016 28.3454 1.80622C29.4248 2.65229 30.1912 3.83606 30.5227 5.16928L35.4972 25.14H178.1C179.033 25.1403 179.954 25.3537 180.792 25.764C181.63 26.1744 182.365 26.771 182.939 27.5084C183.513 28.2458 183.912 29.1048 184.106 30.02C184.3 30.9353 184.283 31.8828 184.057 32.7907L165.633 106.711C165.302 108.044 164.535 109.228 163.456 110.074C162.377 110.92 161.046 111.38 159.676 111.38H49.1311C47.7612 111.38 46.4308 110.92 45.3513 110.074C44.2719 109.228 43.5055 108.044 43.174 106.711L19.7753 12.82H6.14139C4.51259 12.82 2.95051 12.171 1.79877 11.0158C0.647038 9.86055 0 8.29373 0 6.66ZM38.5679 37.46L44.7093 62.1H61.4139V37.46H38.5679ZM73.6967 37.46V62.1H98.2622V37.46H73.6967ZM110.545 37.46V62.1H135.111V37.46H110.545ZM147.393 37.46V62.1H164.098L170.239 37.46H147.393ZM161.027 74.42H147.393V99.06H154.886L161.027 74.42ZM135.111 74.42H110.545V99.06H135.111V74.42ZM98.2622 74.42H73.6967V99.06H98.2622V74.42ZM61.4139 74.42H47.78L53.9214 99.06H61.4139V74.42ZM61.4139 136.02C58.1563 136.02 55.0321 137.318 52.7287 139.628C50.4252 141.939 49.1311 145.073 49.1311 148.34C49.1311 151.607 50.4252 154.741 52.7287 157.052C55.0321 159.362 58.1563 160.66 61.4139 160.66C64.6715 160.66 67.7957 159.362 70.0991 157.052C72.4026 154.741 73.6967 151.607 73.6967 148.34C73.6967 145.073 72.4026 141.939 70.0991 139.628C67.7957 137.318 64.6715 136.02 61.4139 136.02ZM36.8483 148.34C36.8483 141.805 39.4365 135.538 44.0434 130.917C48.6504 126.296 54.8987 123.7 61.4139 123.7C67.9291 123.7 74.1774 126.296 78.7844 130.917C83.3913 135.538 85.9795 141.805 85.9795 148.34C85.9795 154.875 83.3913 161.142 78.7844 165.763C74.1774 170.384 67.9291 172.98 61.4139 172.98C54.8987 172.98 48.6504 170.384 44.0434 165.763C39.4365 161.142 36.8483 154.875 36.8483 148.34ZM147.393 136.02C144.136 136.02 141.012 137.318 138.708 139.628C136.405 141.939 135.111 145.073 135.111 148.34C135.111 151.607 136.405 154.741 138.708 157.052C141.012 159.362 144.136 160.66 147.393 160.66C150.651 160.66 153.775 159.362 156.079 157.052C158.382 154.741 159.676 151.607 159.676 148.34C159.676 145.073 158.382 141.939 156.079 139.628C153.775 137.318 150.651 136.02 147.393 136.02ZM122.828 148.34C122.828 141.805 125.416 135.538 130.023 130.917C134.63 126.296 140.878 123.7 147.393 123.7C153.909 123.7 160.157 126.296 164.764 130.917C169.371 135.538 171.959 141.805 171.959 148.34C171.959 154.875 169.371 161.142 164.764 165.763C160.157 170.384 153.909 172.98 147.393 172.98C140.878 172.98 134.63 170.384 130.023 165.763C125.416 161.142 122.828 154.875 122.828 148.34Z" fill="#C3C3C3"/>
</svg>
