<svg width="24" height="24" viewBox="0 0 24 24" fill="none" xmlns="http://www.w3.org/2000/svg">
<path d="M13.9771 8.8125C15.304 8.8125 16.3833 7.73312 16.3833 6.40625C16.3833 5.07938 15.304 4 13.9771 4C12.6502 4 11.5708 5.07938 11.5708 6.40625C11.5708 7.73312 12.6502 8.8125 13.9771 8.8125ZM13.9771 5.375C14.5457 5.375 15.0083 5.83769 15.0083 6.40625C15.0083 6.97481 14.5457 7.4375 13.9771 7.4375C13.4085 7.4375 12.9458 6.97481 12.9458 6.40625C12.9458 5.83769 13.4085 5.375 13.9771 5.375ZM7.78959 8.8125C9.11646 8.8125 10.1958 7.73312 10.1958 6.40625C10.1958 5.07938 9.11646 4 7.78959 4C6.46271 4 5.38334 5.07938 5.38334 6.40625C5.38334 7.73312 6.46271 8.8125 7.78959 8.8125ZM7.78959 5.375C8.35815 5.375 8.82084 5.83769 8.82084 6.40625C8.82084 6.97481 8.35815 7.4375 7.78959 7.4375C7.22103 7.4375 6.75834 6.97481 6.75834 6.40625C6.75834 5.83769 7.22103 5.375 7.78959 5.375ZM7.52146 10.8894C6.4139 11.0118 5.52084 11.9049 5.39846 13.0131C5.35928 13.3651 5.06159 13.625 4.71578 13.625C4.22284 13.625 3.98978 13.2386 4.03103 12.8619C4.22421 11.1198 5.62809 9.71588 7.37021 9.52338C7.74284 9.48625 8.08728 9.75437 8.12921 10.1318C8.17115 10.5092 7.8989 10.8489 7.52146 10.8908V10.8894ZM10.2068 13.6291C10.0714 13.7728 9.88921 13.845 9.70565 13.845C9.53653 13.845 9.3674 13.7831 9.23471 13.6587C8.75278 13.2056 8.4764 12.5662 8.4764 11.9056C8.4764 10.5787 9.55578 9.49931 10.8827 9.49931C11.4086 9.49931 11.9084 9.66569 12.3271 9.98125C12.6303 10.2095 12.6915 10.6406 12.4632 10.9438C12.2343 11.2463 11.8039 11.3081 11.5007 11.0792C11.322 10.9451 11.1082 10.8736 10.8827 10.8736C10.3141 10.8736 9.8514 11.3363 9.8514 11.9049C9.8514 12.1923 9.9669 12.459 10.1766 12.6563C10.453 12.9169 10.4667 13.3521 10.2062 13.6284L10.2068 13.6291ZM9.3949 15.8167C9.6039 16.1344 9.51659 16.5606 9.19896 16.7696C8.5974 17.1656 8.20759 17.8016 8.12921 18.5131C8.09003 18.8644 7.79234 19.125 7.44653 19.125C6.96046 19.125 6.72053 18.7386 6.76178 18.3619C6.88553 17.2426 7.49809 16.2444 8.44203 15.6222C8.75896 15.4139 9.18521 15.5012 9.39421 15.8174L9.3949 15.8167ZM15.6958 10.875C13.0421 10.875 10.8833 13.0344 10.8833 15.6875C10.8833 18.3406 13.0421 20.5 15.6958 20.5C18.3496 20.5 20.5083 18.3406 20.5083 15.6875C20.5083 13.0344 18.3496 10.875 15.6958 10.875ZM15.6958 19.125C13.8004 19.125 12.2583 17.5829 12.2583 15.6875C12.2583 13.7921 13.8004 12.25 15.6958 12.25C17.5913 12.25 19.1333 13.7921 19.1333 15.6875C19.1333 17.5829 17.5913 19.125 15.6958 19.125ZM17.9103 14.8542C18.1736 15.1279 18.1647 15.5631 17.8903 15.8264L16.3696 17.2866C16.0588 17.5933 15.6463 17.7479 15.2332 17.7479C14.82 17.7479 14.4054 17.5933 14.0892 17.2846L13.3109 16.5228C13.0393 16.2568 13.0352 15.8216 13.3006 15.5507C13.5667 15.2784 14.0018 15.275 14.2727 15.5397L15.051 16.3014C15.15 16.3984 15.3115 16.3991 15.4098 16.3014L16.9382 14.8343C17.2125 14.5717 17.647 14.5793 17.9103 14.8542Z" fill="#1C1C1C"/>
</svg>
