<svg width="48" height="48" viewBox="0 0 48 48" fill="none" xmlns="http://www.w3.org/2000/svg">
<g clip-path="url(#clip0_2073_2899)">
<path d="M23.808 32.0002C25.464 32.0002 26.808 33.3442 26.808 35.0002C26.808 36.6562 25.464 38.0002 23.808 38.0002C22.152 38.0002 20.808 36.6562 20.808 35.0002C20.808 33.3442 22.152 32.0002 23.808 32.0002ZM25.808 28.0002C25.808 26.8782 26.624 25.5502 27.664 24.9762C30.664 23.3242 32.278 19.9302 31.682 16.5302C31.116 13.3042 28.468 10.6542 25.24 10.0882C22.876 9.68019 20.48 10.3122 18.662 11.8362C16.848 13.3622 15.806 15.5942 15.806 17.9622C15.806 19.0682 16.702 19.9622 17.806 19.9622C18.91 19.9622 19.806 19.0682 19.806 17.9622C19.806 16.7782 20.326 15.6622 21.234 14.8982C22.156 14.1262 23.338 13.8142 24.548 14.0282C26.122 14.3042 27.464 15.6482 27.74 17.2202C28.046 18.9622 27.258 20.6302 25.732 21.4702C23.42 22.7442 21.806 25.4282 21.806 27.9982C21.806 29.1042 22.702 29.9982 23.806 29.9982C24.91 29.9982 25.806 29.1042 25.806 27.9982L25.808 28.0002ZM48 38.0002V24.6802C48 11.7222 38.192 0.908185 25.672 0.0561852C18.722 -0.403815 11.922 2.13219 7.01802 7.04219C2.11402 11.9542 -0.421977 18.7562 0.060023 25.7082C0.940023 38.4162 12.164 48.0002 26.168 48.0002H38.002C43.516 48.0002 48 43.5142 48 38.0002ZM25.402 4.04819C35.832 4.75619 44 13.8182 44 24.6782V37.9982C44 41.3062 41.308 43.9982 38 43.9982H26.166C14.096 43.9982 4.79402 36.1902 4.04802 25.4302C3.64602 19.6322 5.75802 13.9602 9.84602 9.86819C13.61 6.09819 18.716 4.00019 24.03 4.00019C24.486 4.00019 24.944 4.01619 25.4 4.04619L25.402 4.04819Z" fill="#1C1C1C"/>
</g>
<defs>
<clipPath id="clip0_2073_2899">
<rect width="48" height="48" fill="white"/>
</clipPath>
</defs>
</svg>
