<svg width="48" height="48" viewBox="0 0 48 48" fill="none" xmlns="http://www.w3.org/2000/svg">
<path d="M38.122 26.878L28.95 17.708C27.6167 16.4344 25.8438 15.7236 24 15.7236C22.1561 15.7236 20.3832 16.4344 19.05 17.708L9.87799 26.878C9.3152 27.4408 8.99902 28.2041 8.99902 29C8.99902 29.7959 9.3152 30.5592 9.87799 31.122C10.4408 31.6848 11.2041 32.001 12 32.001C12.7959 32.001 13.5592 31.6848 14.122 31.122L23.294 21.95C23.4815 21.7626 23.7358 21.6572 24.001 21.6572C24.2661 21.6572 24.5205 21.7626 24.708 21.95L33.878 31.122C34.4408 31.6848 35.2041 32.001 36 32.001C36.7959 32.001 37.5592 31.6848 38.122 31.122C38.6848 30.5592 39.0009 29.7959 39.0009 29C39.0009 28.2041 38.6848 27.4408 38.122 26.878Z" fill="white"/>
</svg>
