<svg width="140" height="137" viewBox="0 0 140 137" fill="none" xmlns="http://www.w3.org/2000/svg">
<path d="M17.5 55.3333C23.9342 55.3333 29.1667 50.1008 29.1667 43.6666C29.1667 37.2325 23.9342 32 17.5 32C11.0658 32 5.83332 37.2325 5.83332 43.6666C5.83332 50.1008 11.0658 55.3333 17.5 55.3333ZM17.5 37.8333C20.72 37.8333 23.3333 40.4466 23.3333 43.6666C23.3333 46.8867 20.72 49.5 17.5 49.5C14.28 49.5 11.6667 46.8867 11.6667 43.6666C11.6667 40.4466 14.28 37.8333 17.5 37.8333ZM46.6667 32C40.2325 32 35 37.2325 35 43.6666C35 50.1008 40.2325 55.3333 46.6667 55.3333C53.1008 55.3333 58.3333 50.1008 58.3333 43.6666C58.3333 37.2325 53.1008 32 46.6667 32ZM46.6667 49.5C43.4467 49.5 40.8333 46.8867 40.8333 43.6666C40.8333 40.4466 43.4467 37.8333 46.6667 37.8333C49.8867 37.8333 52.5 40.4466 52.5 43.6666C52.5 46.8867 49.8867 49.5 46.6667 49.5ZM75.8333 55.3333C82.2675 55.3333 87.5 50.1008 87.5 43.6666C87.5 37.2325 82.2675 32 75.8333 32C69.3992 32 64.1667 37.2325 64.1667 43.6666C64.1667 50.1008 69.3992 55.3333 75.8333 55.3333ZM75.8333 37.8333C79.0533 37.8333 81.6667 40.4466 81.6667 43.6666C81.6667 46.8867 79.0533 49.5 75.8333 49.5C72.6133 49.5 70 46.8867 70 43.6666C70 40.4466 72.6133 37.8333 75.8333 37.8333ZM136.284 91.3892L96.5825 135.956C96.005 136.597 95.2116 136.93 94.4066 136.93C93.7183 136.93 93.0242 136.685 92.4642 136.189C91.2625 135.116 91.1575 133.278 92.2308 132.071L131.932 87.5042C135.129 83.9225 134.843 78.375 131.291 75.1316C127.832 71.8941 121.957 72.1391 118.842 75.7208L92.575 104.584C92.575 104.584 92.5517 104.602 92.54 104.613C90.7608 110.085 86.0242 114.332 80.0975 115.177L44.0942 119.482C42.5017 119.692 41.0433 118.537 40.8508 116.933C40.6583 115.335 41.7958 113.882 43.4 113.69L79.3392 109.391C83.965 108.732 87.4942 104.654 87.4942 99.9175C87.4942 94.6383 83.195 90.3333 77.91 90.3333H20.4167C12.3725 90.3333 5.83332 96.8725 5.83332 104.917V134.083C5.83332 135.693 4.52665 137 2.91665 137C1.30665 137 -1.25039e-05 135.693 -1.25039e-05 134.083V104.917C-1.25039e-05 93.6583 9.15832 84.5 20.4167 84.5H77.9158C84.9683 84.5 90.8717 89.295 92.6917 95.77L114.52 71.7833C119.712 65.8566 129.471 65.3725 135.217 70.815C141.12 76.1992 141.598 85.4333 136.284 91.3892ZM29.2308 75.155C30.9108 67.0466 38.2433 61.1666 46.6667 61.1666C55.09 61.1666 62.4225 67.0525 64.1025 75.155C64.9308 78.8358 59.1267 80.0725 58.3917 76.3391C57.2717 70.9258 52.3367 66.9941 46.6608 66.9941C40.985 66.9941 36.0558 70.9258 34.93 76.3391C34.5975 77.92 33.04 78.9583 31.4825 78.6025C29.9017 78.2758 28.8925 76.7358 29.2192 75.155H29.2308ZM75.8333 61.1666C84.2567 61.1666 91.5892 67.0525 93.2692 75.155C94.0975 78.8358 88.2933 80.0725 87.5583 76.3391C86.4383 70.9258 81.5033 66.9941 75.8275 66.9941C75.0167 66.9941 74.2292 67.0758 73.465 67.2216C71.96 67.4958 70.3558 66.4983 70.0467 64.9116C69.7433 63.3308 70.7758 61.8025 72.3567 61.4933C73.4708 61.2775 74.6433 61.1608 75.8275 61.1608L75.8333 61.1666ZM0.0641542 75.155C1.74415 67.0466 9.07665 61.1666 17.5 61.1666C18.6842 61.1666 19.8508 61.2833 20.9708 61.4991C22.5517 61.8083 23.5842 63.3366 23.2808 64.9175C22.9658 66.5041 21.3675 67.4958 19.8625 67.2275C19.0983 67.0816 18.305 67 17.5 67C11.8242 67 6.89499 70.9316 5.76915 76.345C5.03999 80.0783 -0.764179 78.8417 0.0583208 75.1608L0.0641542 75.155ZM33.705 12.6216C32.0717 11.3383 33.1275 8.56164 35.1925 8.63164H42.0817L44.52 1.88831C45.1733 -0.0425228 48.1658 -0.0425228 48.8192 1.88831L51.2575 8.63164H58.1467C60.2117 8.56164 61.2675 11.35 59.6225 12.6275L54.1917 16.9908L56.4375 23.7341C57.1725 25.7058 54.7108 27.5258 53.0075 26.3416L46.6842 22.2816L40.4658 26.3825C38.7742 27.59 36.3008 25.7991 37.0008 23.8216L39.1592 16.9966L33.705 12.6216ZM65.3975 17.6966C64.085 16.6641 64.9367 14.43 66.5933 14.4883H72.1408L74.1008 9.05748C74.6258 7.50581 77.035 7.50581 77.5658 9.05748L79.5258 14.4883H85.0733C86.7358 14.43 87.5875 16.6758 86.2633 17.7025L81.8883 21.2141L83.6967 26.645C84.2858 28.2316 82.3025 29.6958 80.9317 28.745L75.845 25.4783L70.84 28.78C69.4808 29.7541 67.4858 28.3075 68.0517 26.7208L69.79 21.2258L65.3975 17.6966ZM7.07582 17.6966C5.76332 16.6641 6.61499 14.43 8.27165 14.4883H13.8192L15.7792 9.05748C16.3042 7.50581 18.7133 7.50581 19.2442 9.05748L21.2042 14.4883H26.7517C27.5275 14.4883 28.2217 14.9666 28.49 15.6841C28.7583 16.4016 28.5367 17.2125 27.9417 17.7025L23.5725 21.2141L25.3808 26.645C25.97 28.2316 23.9867 29.6958 22.6158 28.745L17.5292 25.4783L12.5242 28.78C11.165 29.7541 9.16999 28.3075 9.73582 26.7208L11.4742 21.2258L7.08165 17.7025L7.07582 17.6966Z" fill="url(#paint0_linear_4667_4220)"/>
<defs>
<linearGradient id="paint0_linear_4667_4220" x1="139.977" y1="68.7202" x2="-0.0213013" y2="68.7202" gradientUnits="userSpaceOnUse">
<stop stop-color="#8DBFEC"/>
<stop offset="1" stop-color="#509FE0"/>
</linearGradient>
</defs>
</svg>
