<svg width="140" height="140" viewBox="0 0 140 140" fill="none" xmlns="http://www.w3.org/2000/svg">
<path d="M102.083 29.1667C110.122 29.1667 116.667 22.6275 116.667 14.5833C116.667 6.53917 110.122 0 102.083 0C94.045 0 87.5 6.53917 87.5 14.5833C87.5 22.6275 94.045 29.1667 102.083 29.1667ZM102.083 5.83333C106.908 5.83333 110.833 9.75917 110.833 14.5833C110.833 19.4075 106.908 23.3333 102.083 23.3333C97.2592 23.3333 93.3333 19.4075 93.3333 14.5833C93.3333 9.75917 97.2592 5.83333 102.083 5.83333ZM139.691 135.777L126.904 110.198C125.457 107.304 123.048 104.948 120.132 103.553L109.783 98.6242L114.036 68.9383L135.631 81.2758C136.086 81.5325 136.588 81.655 137.078 81.655C138.093 81.655 139.073 81.1242 139.615 80.185C140.414 78.785 139.93 77.0058 138.53 76.2008L114.928 62.7142L116.533 51.5375C117.104 47.3667 115.838 43.1492 113.067 39.9817C110.297 36.8083 106.295 34.9883 102.083 34.9883C97.2242 34.9883 92.6567 36.7325 89.0225 39.7833C88.6725 40.0108 58.6367 76.9125 58.6367 76.9125C57.6275 78.1725 57.8258 80.0042 59.0858 81.0133C60.3458 82.0283 62.1775 81.83 63.1867 80.57L85.9483 52.2142L81.8767 76.1192C80.6342 84.9042 83.8425 91.9917 91.1283 96.18L117.629 108.809C119.379 109.649 120.82 111.061 121.689 112.799L134.476 138.378C134.989 139.399 136.016 139.988 137.089 139.988C137.527 139.988 137.97 139.889 138.39 139.679C139.831 138.956 140.414 137.206 139.697 135.765L139.691 135.777ZM93.835 91.0292C88.8125 88.1358 86.73 83.3933 87.6342 77.0292L93.2925 43.8083C95.8008 41.9067 98.8575 40.8333 102.083 40.8333C104.609 40.8333 107.012 41.93 108.675 43.8317C110.338 45.7333 111.096 48.265 110.752 50.75L104.265 96.005L93.835 91.035V91.0292ZM46.2758 79.0125L43.225 76.7025C36.2017 71.8783 28.2742 70.8983 20.2825 79.6833L3.29 101.407C-2.07083 108.494 -0.723335 118.697 6.30583 124.151L19.0517 134.027C21.0583 137.573 24.815 140 29.1725 140C35.6067 140 40.8392 134.768 40.8392 128.333C40.8392 124.291 38.7683 120.727 35.6358 118.632L49.1983 101.191C54.5767 94.2783 53.2642 84.3033 46.2758 79.0125ZM29.1667 134.167C25.9525 134.167 23.3333 131.553 23.3333 128.333C23.3333 125.113 25.9525 122.5 29.1667 122.5C32.3808 122.5 35 125.113 35 128.333C35 131.553 32.3808 134.167 29.1667 134.167ZM44.6483 97.6033L29.7325 116.725C29.54 116.713 29.365 116.667 29.1725 116.667C23.6833 116.667 19.1042 120.488 17.8675 125.598L9.8875 119.548C5.3725 116.043 4.4975 109.486 7.88667 105.006L24.9375 83.2125C29.4933 76.8892 35.7583 78.7558 39.655 81.3225L42.7992 83.6792C47.2092 86.9867 48.0492 93.2633 44.6542 97.6092L44.6483 97.6033ZM86.9575 105.478L81.6258 137.562C81.3867 138.985 80.3192 140 78.2717 139.959C76.685 139.697 75.6058 138.192 75.8742 136.605L81.2058 104.522C81.4683 102.941 82.9558 101.844 84.56 102.124C86.1467 102.387 87.2258 103.892 86.9575 105.478Z" fill="url(#paint0_linear_4667_763)"/>
<defs>
<linearGradient id="paint0_linear_4667_763" x1="140.004" y1="70.0001" x2="0.00830078" y2="70.0001" gradientUnits="userSpaceOnUse">
<stop stop-color="#8DBFEC"/>
<stop offset="1" stop-color="#509FE0"/>
</linearGradient>
</defs>
</svg>
