<svg width="88" height="20" viewBox="0 0 88 20" fill="none" xmlns="http://www.w3.org/2000/svg">
<g clip-path="url(#clip0_2087_6033)">
<g clip-path="url(#clip1_2087_6033)">
<path d="M15.6135 11.666H12.5002V9.99935H10.8335V11.666H7.50016V8.33268H9.16683V6.66602H7.50016V3.55185C8.04424 3.40875 8.60425 3.3351 9.16683 3.33268V1.66602C4.571 1.66602 0.833496 5.40435 0.833496 9.99935C0.833496 14.5943 4.571 18.3327 9.16683 18.3327C13.7618 18.3327 17.5002 14.5943 17.5002 9.99935H15.8335C15.8335 10.5752 15.7518 11.1318 15.6135 11.666ZM5.8335 4.23518V6.66602H3.40183C3.98717 5.65804 4.82531 4.82017 5.8335 4.23518ZM2.71933 8.33268H5.8335V11.666H2.71933C2.57588 11.122 2.50223 10.562 2.50016 9.99935C2.50016 9.42352 2.581 8.86685 2.71933 8.33268ZM3.40183 13.3327H5.8335V15.7643C4.82545 15.1788 3.98736 14.3407 3.40183 13.3327ZM7.50016 16.4468V13.3327H10.8335V16.4468C10.2895 16.5903 9.72943 16.6639 9.16683 16.666C8.60422 16.664 8.04416 16.5903 7.50016 16.4468ZM12.5002 15.7643V13.3327H14.931C14.3458 14.3407 13.508 15.1788 12.5002 15.7643Z" fill="#F2F7FD"/>
<path d="M19.0937 2.93182C19.0041 2.73419 18.8417 2.57869 18.6404 2.49768C18.4391 2.41666 18.2143 2.41635 18.0128 2.49682L15.6753 3.53766L12.9078 1.78516L11.5687 2.47849L14.167 4.16516H14.2637L12.2378 5.06682L10.4862 4.28516L9.16699 5.04516L12.5003 6.71599L14.3328 5.87099L13.0637 9.16516L14.5612 8.38682L16.387 5.05016L18.6637 4.04849C18.7656 4.00388 18.8577 3.93949 18.9346 3.85905C19.0115 3.77862 19.0717 3.68373 19.1117 3.57988C19.1517 3.47603 19.1707 3.36529 19.1676 3.25405C19.1645 3.14281 19.1394 3.03329 19.0937 2.93182Z" fill="#509FE0"/>
</g>
<path d="M28.352 6.196L30.64 7.508C30.544 7.652 30.4 7.748 30 7.7C28.768 9.188 26.704 11.14 24.416 12.42L24.272 12.244C25.92 10.532 27.584 7.892 28.352 6.196ZM28.192 2.964L30.336 4.292C30.24 4.452 30.08 4.532 29.712 4.468C28.56 5.54 26.72 6.868 24.8 7.7L24.656 7.524C26.048 6.26 27.504 4.26 28.192 2.964ZM26.864 9.844L27.6 8.868L29.232 9.476C29.184 9.62 29.024 9.732 28.736 9.796V17.444C28.72 17.588 27.936 17.956 27.2 17.956H26.864V9.844ZM31.04 4.548H36.288L37.264 3.268C37.264 3.268 38.368 4.148 39.008 4.74C38.96 4.916 38.8 4.996 38.576 4.996H31.168L31.04 4.548ZM30.144 8.228H36.752L37.76 6.916C37.76 6.916 38.896 7.812 39.568 8.436C39.52 8.612 39.36 8.692 39.12 8.692H30.272L30.144 8.228ZM34.88 8.276H36.8V15.492C36.8 16.772 36.432 17.668 34.064 17.812C34.016 17.22 33.872 16.756 33.536 16.484C33.2 16.212 32.736 15.988 31.648 15.828V15.604C31.648 15.604 34.032 15.764 34.48 15.764C34.784 15.764 34.88 15.652 34.88 15.444V8.276ZM50.112 8.26C50.048 8.404 49.84 8.468 49.552 8.516V9.476C49.472 9.476 49.12 9.476 47.792 9.476V7.572L50.112 8.26ZM47.312 15.844C48.048 15.732 49.76 15.396 51.424 15.012L51.472 15.188C50.848 15.7 49.52 16.74 48.016 17.7L47.312 15.844ZM49.12 8.708L49.552 8.964V15.94L47.824 16.564L48.624 15.94C48.864 17.124 48.304 17.78 47.888 17.956L46.976 15.892C47.68 15.556 47.792 15.396 47.792 15.044V8.708H49.12ZM42.336 2.964C46.384 3.828 44.752 6.836 43.232 5.604C43.184 4.708 42.688 3.7 42.192 3.06L42.336 2.964ZM43.888 6.116C43.824 10.324 43.36 14.836 40.624 17.924L40.448 17.796C41.968 14.372 42.176 10.036 42.016 6.116H43.888ZM45.6 9.012V9.46H42.832V9.012H45.6ZM44.784 9.012L45.68 8.1L47.296 9.444C47.168 9.588 46.976 9.7 46.64 9.732C46.496 14.772 46.208 16.5 45.424 17.22C44.928 17.684 44.304 17.86 43.552 17.86C43.552 17.332 43.52 16.916 43.328 16.692C43.152 16.436 42.816 16.26 42.32 16.132L42.336 15.908C42.736 15.956 43.376 15.988 43.664 15.988C43.904 15.988 44.032 15.94 44.16 15.812C44.608 15.396 44.832 13.428 44.944 9.012H44.784ZM45.888 4.804C45.888 4.804 46.96 5.7 47.568 6.324C47.536 6.5 47.36 6.58 47.136 6.58H40.64L40.512 6.116H44.96L45.888 4.804ZM51.296 3.668C51.232 3.86 51.024 3.988 50.672 3.988C49.728 6.1 48.384 7.652 46.8 8.66L46.624 8.516C47.536 7.172 48.384 5.028 48.768 2.868L51.296 3.668ZM53.856 4.484C53.856 4.484 54.96 5.38 55.616 6.004C55.568 6.18 55.408 6.26 55.184 6.26H48.688V5.812H52.88L53.856 4.484ZM55.424 10.516C55.328 10.644 55.072 10.74 54.768 10.612C54.112 11.14 52.752 12.068 51.584 12.66L51.456 12.532C52.176 11.524 53.136 9.892 53.52 9.076L55.424 10.516ZM54.96 8.02C54.848 8.132 54.688 8.148 54.432 8.068C53.136 8.436 50.656 8.756 48.848 8.804L48.736 8.596C50.192 8.132 52.112 7.236 53.04 6.564L54.96 8.02ZM50.816 8.276C51.456 11.86 53.168 14.692 55.696 15.796L55.664 15.972C54.992 16.18 54.4 16.836 54.144 17.828C51.824 15.972 50.992 13.092 50.608 8.34L50.816 8.276ZM59.744 13.892C60.048 13.892 60.16 13.956 60.384 14.116C61.568 15.236 63.36 15.524 66.8 15.524C68.496 15.524 69.856 15.508 71.536 15.412V15.588C70.704 15.78 70.208 16.612 70.112 17.508C69.136 17.508 67.376 17.508 66.064 17.508C62.688 17.508 61.408 16.74 60.144 14.74C59.92 14.388 59.744 14.452 59.552 14.756C59.248 15.3 58.48 16.452 57.952 17.396C58 17.572 57.904 17.7 57.776 17.764L56.336 15.524C57.536 14.964 59.328 13.892 59.744 13.892ZM61.536 2.948C66.512 3.796 64.912 7.54 63.024 6.196C62.848 5.076 62.112 3.844 61.392 3.044L61.536 2.948ZM67.232 6.884L68.4 5.844L70.144 7.444C70.032 7.62 69.872 7.668 69.44 7.684C67.376 10.532 63.776 12.98 59.6 14.292L59.472 14.1C62.656 12.372 65.936 9.54 67.456 6.884H67.232ZM68.16 6.884V7.332H57.424L57.28 6.884H68.16ZM80.832 2.82C84.688 2.996 82.928 5.86 81.392 4.676C81.376 4.036 81.056 3.316 80.72 2.9L80.832 2.82ZM81.92 12.804C81.68 14.9 80.976 16.74 75.856 17.924L75.712 17.684C79.616 16.228 79.84 14.564 79.936 12.804H81.92ZM84.176 12.788C84.176 12.964 84.176 13.172 84.176 13.3V15.7C84.176 15.892 84.224 15.94 84.512 15.94H85.248C85.52 15.94 85.76 15.94 85.888 15.94C86.032 15.924 86.096 15.892 86.176 15.764C86.32 15.54 86.528 14.868 86.784 14.052H86.96L87.008 15.812C87.44 16.004 87.504 16.196 87.504 16.5C87.504 17.124 86.96 17.428 85.056 17.428H84C82.672 17.428 82.48 17.108 82.48 16.052V12.788H84.176ZM79.936 13.364C79.936 13.54 79.152 13.908 78.4 13.908H78.16V8.58L80.048 9.316H85.12V9.78H79.936V13.364ZM84.24 9.316L85.024 8.484L86.704 9.716C86.608 9.828 86.4 9.972 86.112 10.02V13.316C86.096 13.412 85.232 13.732 84.688 13.732H84.4V9.316H84.24ZM85.056 10.98V11.444H79.36V10.98H85.056ZM79.072 5.444C82.912 5.86 81.2 8.676 79.728 7.476C79.696 6.788 79.328 6.004 78.928 5.54L79.072 5.444ZM85.616 6.084C85.552 6.276 85.36 6.372 85.008 6.34C84.448 6.836 83.632 7.572 82.896 8.116H82.64C82.88 7.332 83.184 6.116 83.36 5.3L85.616 6.084ZM85.888 6.66C85.888 6.66 86.912 7.46 87.536 8.036C87.488 8.212 87.328 8.292 87.088 8.292H77.344L77.216 7.828H84.992L85.888 6.66ZM85.552 3.604C85.552 3.604 86.592 4.452 87.216 5.028C87.168 5.204 86.992 5.284 86.768 5.284H77.728L77.6 4.836H84.64L85.552 3.604ZM85.104 12.644V13.108H79.408V12.644H85.104ZM72.432 13.604C73.36 13.364 75.632 12.676 77.888 11.924L77.936 12.068C77.12 12.804 75.84 13.876 73.968 15.236C73.92 15.444 73.76 15.62 73.584 15.684L72.432 13.604ZM76.512 3.38C76.48 3.604 76.352 3.748 75.92 3.812V13.204L74.128 13.78V3.156L76.512 3.38ZM76.816 5.812C76.816 5.812 77.696 6.708 78.144 7.284C78.096 7.46 77.936 7.54 77.728 7.54H72.592L72.464 7.076H76.064L76.816 5.812Z" fill="#F2F7FD"/>
</g>
<defs>
<clipPath id="clip0_2087_6033">
<rect width="88" height="20" fill="white"/>
</clipPath>
<clipPath id="clip1_2087_6033">
<rect width="20" height="20" fill="white"/>
</clipPath>
</defs>
</svg>
