<svg width="140" height="140" viewBox="0 0 140 140" fill="none" xmlns="http://www.w3.org/2000/svg">
<path d="M102.083 64.1666C81.1767 64.1666 64.1667 81.1766 64.1667 102.083C64.1667 122.99 81.1767 140 102.083 140C122.99 140 140 122.99 140 102.083C140 81.1766 122.99 64.1666 102.083 64.1666ZM102.083 134.167C84.3967 134.167 70 119.77 70 102.083C70 84.3966 84.3967 70 102.083 70C119.77 70 134.167 84.3966 134.167 102.083C134.167 119.77 119.77 134.167 102.083 134.167ZM121.625 94.1675C122.745 95.3225 122.716 97.1716 121.555 98.2916L105.788 113.54C103.693 115.611 100.917 116.649 98.14 116.649C95.3633 116.649 92.6042 115.617 90.4867 113.552L82.53 105.694C81.3867 104.568 81.375 102.719 82.5067 101.57C83.6383 100.427 85.4875 100.415 86.6308 101.547L94.5758 109.392C96.5358 111.312 99.7442 111.3 101.704 109.369L117.495 94.0975C118.656 92.9833 120.517 93.0066 121.625 94.1675ZM5.83333 78.9191C5.65833 84.6125 11.8125 89.0166 17.1442 87.0391L48.4517 73.8266C49.35 73.4475 50.3825 73.5466 51.1992 74.0833C52.0158 74.6258 52.5058 75.5358 52.5058 76.5158V109.538C52.5058 110.518 52.0158 111.428 51.1992 111.971L38.9258 120.102C36.4758 121.724 35.0117 124.454 35.0117 127.4C34.9708 132.02 40.0283 134.902 44.3742 134.021L54.5242 130.095C56.0175 129.512 57.715 130.27 58.2925 131.775C58.8642 133.286 58.1117 134.972 56.6067 135.543L45.9492 139.609C44.8467 139.825 43.7617 139.936 42.7058 139.936C35.5717 140.087 29.085 134.528 29.1842 127.406C29.1842 122.494 31.6225 117.95 35.7175 115.243L46.6842 107.981V80.92L19.2267 92.4933C10.0567 95.9408 -0.215833 88.5908 0.0175003 78.925C0.0175003 72.8758 3.31333 67.3166 8.6275 64.4175L46.6842 39.4158V18.2816C46.6667 9.3508 52.9375 1.58663 61.25 0.239129C66.3775 -0.618371 71.5808 0.834129 75.5008 4.16496C79.415 7.4958 81.6667 12.355 81.6667 17.5V39.41L97.965 50.1141C99.3067 50.995 99.6858 52.8091 98.805 54.1508C97.9242 55.4983 96.1042 55.8658 94.7683 54.9908L77.1517 43.4233C76.3292 42.8808 75.8333 41.965 75.8333 40.985V17.5C75.8333 14.07 74.3342 10.8266 71.7208 8.60996C69.0667 6.34663 65.6775 5.41913 62.1833 5.99663C56.665 6.89496 52.5 12.18 52.5 18.2816V40.985C52.5 41.965 52.0042 42.8808 51.1817 43.4233L11.6083 69.405C7.96833 71.4058 5.83333 75.005 5.83333 78.9191Z" fill="url(#paint0_linear_4667_4266)"/>
<defs>
<linearGradient id="paint0_linear_4667_4266" x1="140" y1="69.9989" x2="0.0135975" y2="69.9989" gradientUnits="userSpaceOnUse">
<stop stop-color="#8DBFEC"/>
<stop offset="1" stop-color="#509FE0"/>
</linearGradient>
</defs>
</svg>
