<svg width="216" height="48" viewBox="0 0 216 48" fill="none" xmlns="http://www.w3.org/2000/svg">
<g clip-path="url(#clip0_2072_2712)">
<path d="M37.472 28H30V24H26V28H18V20H22V16H18V8.526C19.3058 8.18255 20.6498 8.00581 22 8V4C10.97 4 2 12.972 2 24C2 35.028 10.97 44 22 44C33.028 44 42 35.028 42 24H38C38 25.382 37.804 26.718 37.472 28ZM14 10.166V16H8.164C9.56881 13.5808 11.5804 11.57 14 10.166ZM6.526 20H14V28H6.526C6.18173 26.6944 6.00497 25.3502 6 24C6 22.618 6.194 21.282 6.526 20ZM8.164 32H14V37.836C11.5807 36.4307 9.56927 34.4193 8.164 32ZM18 39.474V32H26V39.474C24.6944 39.8183 23.3502 39.995 22 40C20.6497 39.9952 19.3056 39.8184 18 39.474ZM30 37.836V32H35.834C34.4294 34.4192 32.4187 36.4306 30 37.836Z" fill="#F2F7FD"/>
<path d="M45.824 7.03911C45.609 6.56479 45.2194 6.1916 44.7363 5.99716C44.2531 5.80272 43.7137 5.80198 43.23 5.99511L37.62 8.49311L30.978 4.28711L27.764 5.95111L34 9.99911H34.232L29.37 12.1631L25.166 10.2871L22 12.1111L30 16.1211L34.398 14.0931L31.352 21.9991L34.946 20.1311L39.328 12.1231L44.792 9.71911C45.0367 9.61203 45.2577 9.4575 45.4422 9.26446C45.6268 9.07141 45.7712 8.84368 45.8672 8.59445C45.9632 8.34521 46.0088 8.07942 46.0014 7.81245C45.994 7.54548 45.9337 7.28263 45.824 7.03911Z" fill="#509FE0"/>
</g>
<path d="M66.88 15.24L72.6 18.52C72.36 18.88 72 19.12 71 19C67.92 22.72 62.76 27.6 57.04 30.8L56.68 30.36C60.8 26.08 64.96 19.48 66.88 15.24ZM66.48 7.16L71.84 10.48C71.6 10.88 71.2 11.08 70.28 10.92C67.4 13.6 62.8 16.92 58 19L57.64 18.56C61.12 15.4 64.76 10.4 66.48 7.16ZM63.16 24.36L65 21.92L69.08 23.44C68.96 23.8 68.56 24.08 67.84 24.24V43.36C67.8 43.72 65.84 44.64 64 44.64H63.16V24.36ZM73.6 11.12H86.72L89.16 7.92C89.16 7.92 91.92 10.12 93.52 11.6C93.4 12.04 93 12.24 92.44 12.24H73.92L73.6 11.12ZM71.36 20.32H87.88L90.4 17.04C90.4 17.04 93.24 19.28 94.92 20.84C94.8 21.28 94.4 21.48 93.8 21.48H71.68L71.36 20.32ZM83.2 20.44H88V38.48C88 41.68 87.08 43.92 81.16 44.28C81.04 42.8 80.68 41.64 79.84 40.96C79 40.28 77.84 39.72 75.12 39.32V38.76C75.12 38.76 81.08 39.16 82.2 39.16C82.96 39.16 83.2 38.88 83.2 38.36V20.44ZM121.28 20.4C121.12 20.76 120.6 20.92 119.88 21.04V23.44C119.68 23.44 118.8 23.44 115.48 23.44V18.68L121.28 20.4ZM114.28 39.36C116.12 39.08 120.4 38.24 124.56 37.28L124.68 37.72C123.12 39 119.8 41.6 116.04 44L114.28 39.36ZM118.8 21.52L119.88 22.16V39.6L115.56 41.16L117.56 39.6C118.16 42.56 116.76 44.2 115.72 44.64L113.44 39.48C115.2 38.64 115.48 38.24 115.48 37.36V21.52H118.8ZM101.84 7.16C111.96 9.32 107.88 16.84 104.08 13.76C103.96 11.52 102.72 9 101.48 7.4L101.84 7.16ZM105.72 15.04C105.56 25.56 104.4 36.84 97.56 44.56L97.12 44.24C100.92 35.68 101.44 24.84 101.04 15.04H105.72ZM110 22.28V23.4H103.08V22.28H110ZM107.96 22.28L110.2 20L114.24 23.36C113.92 23.72 113.44 24 112.6 24.08C112.24 36.68 111.52 41 109.56 42.8C108.32 43.96 106.76 44.4 104.88 44.4C104.88 43.08 104.8 42.04 104.32 41.48C103.88 40.84 103.04 40.4 101.8 40.08L101.84 39.52C102.84 39.64 104.44 39.72 105.16 39.72C105.76 39.72 106.08 39.6 106.4 39.28C107.52 38.24 108.08 33.32 108.36 22.28H107.96ZM110.72 11.76C110.72 11.76 113.4 14 114.92 15.56C114.84 16 114.4 16.2 113.84 16.2H97.6L97.28 15.04H108.4L110.72 11.76ZM124.24 8.92C124.08 9.4 123.56 9.72 122.68 9.72C120.32 15 116.96 18.88 113 21.4L112.56 21.04C114.84 17.68 116.96 12.32 117.92 6.92L124.24 8.92ZM130.64 10.96C130.64 10.96 133.4 13.2 135.04 14.76C134.92 15.2 134.52 15.4 133.96 15.4H117.72V14.28H128.2L130.64 10.96ZM134.56 26.04C134.32 26.36 133.68 26.6 132.92 26.28C131.28 27.6 127.88 29.92 124.96 31.4L124.64 31.08C126.44 28.56 128.84 24.48 129.8 22.44L134.56 26.04ZM133.4 19.8C133.12 20.08 132.72 20.12 132.08 19.92C128.84 20.84 122.64 21.64 118.12 21.76L117.84 21.24C121.48 20.08 126.28 17.84 128.6 16.16L133.4 19.8ZM123.04 20.44C124.64 29.4 128.92 36.48 135.24 39.24L135.16 39.68C133.48 40.2 132 41.84 131.36 44.32C125.56 39.68 123.48 32.48 122.52 20.6L123.04 20.44ZM145.36 34.48C146.12 34.48 146.4 34.64 146.96 35.04C149.92 37.84 154.4 38.56 163 38.56C167.24 38.56 170.64 38.52 174.84 38.28V38.72C172.76 39.2 171.52 41.28 171.28 43.52C168.84 43.52 164.44 43.52 161.16 43.52C152.72 43.52 149.52 41.6 146.36 36.6C145.8 35.72 145.36 35.88 144.88 36.64C144.12 38 142.2 40.88 140.88 43.24C141 43.68 140.76 44 140.44 44.16L136.84 38.56C139.84 37.16 144.32 34.48 145.36 34.48ZM149.84 7.12C162.28 9.24 158.28 18.6 153.56 15.24C153.12 12.44 151.28 9.36 149.48 7.36L149.84 7.12ZM164.08 16.96L167 14.36L171.36 18.36C171.08 18.8 170.68 18.92 169.6 18.96C164.44 26.08 155.44 32.2 145 35.48L144.68 35C152.64 30.68 160.84 23.6 164.64 16.96H164.08ZM166.4 16.96V18.08H139.56L139.2 16.96H166.4ZM198.08 6.8C207.72 7.24 203.32 14.4 199.48 11.44C199.44 9.84 198.64 8.04 197.8 7L198.08 6.8ZM200.8 31.76C200.2 37 198.44 41.6 185.64 44.56L185.28 43.96C195.04 40.32 195.6 36.16 195.84 31.76H200.8ZM206.44 31.72C206.44 32.16 206.44 32.68 206.44 33V39C206.44 39.48 206.56 39.6 207.28 39.6H209.12C209.8 39.6 210.4 39.6 210.72 39.6C211.08 39.56 211.24 39.48 211.44 39.16C211.8 38.6 212.32 36.92 212.96 34.88H213.4L213.52 39.28C214.6 39.76 214.76 40.24 214.76 41C214.76 42.56 213.4 43.32 208.64 43.32H206C202.68 43.32 202.2 42.52 202.2 39.88V31.72H206.44ZM195.84 33.16C195.84 33.6 193.88 34.52 192 34.52H191.4V21.2L196.12 23.04H208.8V24.2H195.84V33.16ZM206.6 23.04L208.56 20.96L212.76 24.04C212.52 24.32 212 24.68 211.28 24.8V33.04C211.24 33.28 209.08 34.08 207.72 34.08H207V23.04H206.6ZM208.64 27.2V28.36H194.4V27.2H208.64ZM193.68 13.36C203.28 14.4 199 21.44 195.32 18.44C195.24 16.72 194.32 14.76 193.32 13.6L193.68 13.36ZM210.04 14.96C209.88 15.44 209.4 15.68 208.52 15.6C207.12 16.84 205.08 18.68 203.24 20.04H202.6C203.2 18.08 203.96 15.04 204.4 13L210.04 14.96ZM210.72 16.4C210.72 16.4 213.28 18.4 214.84 19.84C214.72 20.28 214.32 20.48 213.72 20.48H189.36L189.04 19.32H208.48L210.72 16.4ZM209.88 8.76C209.88 8.76 212.48 10.88 214.04 12.32C213.92 12.76 213.48 12.96 212.92 12.96H190.32L190 11.84H207.6L209.88 8.76ZM208.76 31.36V32.52H194.52V31.36H208.76ZM177.08 33.76C179.4 33.16 185.08 31.44 190.72 29.56L190.84 29.92C188.8 31.76 185.6 34.44 180.92 37.84C180.8 38.36 180.4 38.8 179.96 38.96L177.08 33.76ZM187.28 8.2C187.2 8.76 186.88 9.12 185.8 9.28V32.76L181.32 34.2V7.64L187.28 8.2ZM188.04 14.28C188.04 14.28 190.24 16.52 191.36 17.96C191.24 18.4 190.84 18.6 190.32 18.6H177.48L177.16 17.44H186.16L188.04 14.28Z" fill="#F2F7FD"/>
<defs>
<clipPath id="clip0_2072_2712">
<rect width="48" height="48" fill="white"/>
</clipPath>
</defs>
</svg>
