<svg width="48" height="48" viewBox="0 0 48 48" fill="none" xmlns="http://www.w3.org/2000/svg">
<g clip-path="url(#clip0_2106_2216)">
<path d="M39 48C38.6003 48.0003 38.2096 47.8808 37.8784 47.657C37.5472 47.4331 37.2907 47.1151 37.142 46.744L35.454 42.518L31.222 40.736C30.859 40.5757 30.5514 40.3117 30.3379 39.9772C30.1245 39.6427 30.0145 39.2525 30.022 38.8558C30.0295 38.459 30.154 38.0733 30.38 37.747C30.6059 37.4208 30.9232 37.1686 31.292 37.022L35.468 35.44L37.142 31.256C37.296 30.8904 37.5544 30.5783 37.8849 30.3589C38.2154 30.1394 38.6033 30.0224 39 30.0224C39.3967 30.0224 39.7846 30.1394 40.1151 30.3589C40.4456 30.5783 40.7041 30.8904 40.858 31.256L42.54 35.456L46.74 37.138C47.1064 37.2913 47.4193 37.5494 47.6393 37.88C47.8594 38.2106 47.9768 38.5989 47.9768 38.996C47.9768 39.3932 47.8594 39.7814 47.6393 40.112C47.4193 40.4426 47.1064 40.7008 46.74 40.854L42.54 42.536L40.858 46.736C40.7106 47.1086 40.4546 47.4283 40.1233 47.6537C39.792 47.879 39.4007 47.9997 39 48ZM20 42C19.136 42.0104 18.2918 41.7407 17.5938 41.2313C16.8958 40.7219 16.3816 40.0001 16.128 39.174L12.9 29.08L2.77401 25.692C1.95673 25.4189 1.24744 24.893 0.748582 24.1903C0.249722 23.4877 -0.0128863 22.6447 -0.00131164 21.7831C0.010263 20.9214 0.295421 20.0858 0.812976 19.3968C1.33053 18.7078 2.05369 18.2012 2.87801 17.95L12.924 14.882L16.308 4.77403C16.5596 3.94378 17.0801 3.22071 17.7875 2.71855C18.4949 2.21639 19.3492 1.96364 20.216 2.00003C21.0802 2.0012 21.9208 2.28222 22.6119 2.80103C23.3031 3.31984 23.8076 4.04853 24.05 4.87803L27.114 14.908L37.174 18.128C37.9854 18.4002 38.6909 18.9204 39.1906 19.6152C39.6904 20.31 39.9593 21.1442 39.9593 22C39.9593 22.8559 39.6904 23.6901 39.1906 24.3849C38.6909 25.0797 37.9854 25.5999 37.174 25.872L27.096 29.096L23.872 39.174C23.6185 40.0001 23.1042 40.7219 22.4062 41.2313C21.7082 41.7407 20.8641 42.0104 20 42ZM20.224 6.04603L16.4 17.128C16.2992 17.4305 16.1275 17.7045 15.8993 17.9272C15.671 18.1498 15.3929 18.3147 15.088 18.408L4.04601 21.776L15.128 25.61C15.4262 25.7094 15.6967 25.8776 15.9177 26.101C16.1387 26.3244 16.3039 26.5968 16.4 26.896L19.94 37.956L23.6 26.896C23.6971 26.5924 23.8654 26.3163 24.0908 26.0908C24.3163 25.8654 24.5923 25.6971 24.896 25.6L35.956 22.062C35.9702 22.0581 35.9837 22.052 35.996 22.044L24.896 18.4C24.588 18.3015 24.3084 18.1298 24.0813 17.8995C23.8542 17.6693 23.6863 17.3874 23.592 17.078L20.224 6.04603ZM41 14C40.5542 14 40.1211 13.851 39.7696 13.5767C39.4181 13.3024 39.1684 12.9185 39.06 12.486L38.346 9.62603L35.48 8.85603C35.0492 8.7403 34.6695 8.48389 34.4012 8.12757C34.1329 7.77124 33.9914 7.33546 33.9993 6.88949C34.0071 6.44352 34.1638 6.01296 34.4444 5.66625C34.725 5.31955 35.1135 5.0766 35.548 4.97603L38.348 4.32603L39.06 1.51403C39.1684 1.08158 39.4182 0.697738 39.7696 0.423472C40.1211 0.149207 40.5542 0.000244141 41 0.000244141C41.4458 0.000244141 41.8789 0.149207 42.2304 0.423472C42.5819 0.697738 42.8316 1.08158 42.94 1.51403L43.648 4.35003L46.484 5.06003C46.9165 5.16842 47.3003 5.41819 47.5746 5.76967C47.8488 6.12116 47.9978 6.55421 47.9978 7.00003C47.9978 7.44586 47.8488 7.87891 47.5746 8.2304C47.3003 8.58188 46.9165 8.83165 46.484 8.94003L43.648 9.65003L42.94 12.486C42.8317 12.9185 42.5819 13.3024 42.2304 13.5767C41.8789 13.851 41.4459 14 41 14Z" fill="#174675"/>
</g>
<defs>
<clipPath id="clip0_2106_2216">
<rect width="48" height="48" fill="white"/>
</clipPath>
</defs>
</svg>
